<?xml version="1.0" standalone="no"?>
<!DOCTYPE svg PUBLIC "-//W3C//DTD SVG 1.1//EN" "http://www.w3.org/Graphics/SVG/1.1/DTD/svg11.dtd" >
<svg xmlns="http://www.w3.org/2000/svg">
<metadata>Generated by IcoMoon</metadata>
<defs>
<font id="icons0004" horiz-adv-x="1024">
<font-face units-per-em="1024" ascent="960" descent="-64" />
<missing-glyph horiz-adv-x="1024" />
<glyph unicode="&#x20;" horiz-adv-x="512" d="" />
<glyph unicode="&#xe900;" glyph-name="back-arrow" d="M224.222 448l512-512 68.267 68.267-443.733 443.733 443.733 443.733-68.267 68.267-512-512z" />
<glyph unicode="&#xe901;" d="M530.080-43.52c271.459 0 491.52 220.061 491.52 491.52s-220.061 491.52-491.52 491.52c-271.459 0-491.52-220.061-491.52-491.52s220.061-491.52 491.52-491.52z" />
<glyph unicode="&#xe902;" d="M477.417 374.272l-140.434 147.456-52.663-55.296 193.097-202.752 298.423 313.344-52.663 55.296-245.76-258.048z" />
<glyph unicode="&#xe903;" glyph-name="btn-check-inactive" d="M477.417 374.272l-140.434 147.456-52.663-55.296 193.097-202.752 298.423 313.344-52.663 55.296-245.76-258.048z" />
<glyph unicode="&#xe904;" glyph-name="btn-deny" d="M530.080 503.296l129.024 129.024 55.296-55.296-129.024-129.024 129.024-129.024-55.296-55.296-129.024 129.024-129.024-129.024-55.296 55.296 129.024 129.024-129.024 129.024 55.296 55.296 129.024-129.024z" />
<glyph unicode="&#xe905;" glyph-name="btn-ellipsis" d="M800.286 447.083c0-67.234 48.829-108.797 109.111-108.797 62.091 0 110.317 41.563 110.317 108.797s-48.226 110.631-110.317 110.631c-60.885 0-109.111-42.786-109.111-110.631v0zM434.571 447.083c0-67.234 48.695-108.797 108.813-108.797 61.921 0 110.616 41.563 110.616 108.797s-48.094 110.631-110.616 110.631c-60.117 0-108.813-42.786-108.813-110.631v0zM68.857 447.083c0-67.234 48.829-108.797 109.111-108.797 62.091 0 110.317 41.563 110.317 108.797s-48.226 110.631-110.317 110.631c-60.885 0-109.111-42.786-109.111-110.631v0z" />
<glyph unicode="&#xe906;" d="M1010.698 448c0-276.194-223.899-500.093-500.093-500.093s-500.093 223.899-500.093 500.093c0 276.194 223.899 500.093 500.093 500.093s500.093-223.899 500.093-500.093z" />
<glyph unicode="&#xe907;" d="M510.605 319.405l-167.97-102.595 45.668 191.453-149.48 128.045 196.195 15.729 75.586 181.732 75.586-181.732 196.195-15.729-149.48-128.045 45.668-191.453z" />
<glyph unicode="&#xe908;" d="M1010.698 448c0-276.194-223.899-500.093-500.093-500.093s-500.093 223.899-500.093 500.093c0 276.194 223.899 500.093 500.093 500.093s500.093-223.899 500.093-500.093z" />
<glyph unicode="&#xe909;" d="M510.605 319.405l-167.97-102.595 45.668 191.453-149.48 128.045 196.195 15.729 75.586 181.732 75.586-181.732 196.195-15.729-149.48-128.045 45.668-191.453z" />
<glyph unicode="&#xe90a;" d="M510.605-52.093c276.194 0 500.093 223.899 500.093 500.093s-223.899 500.093-500.093 500.093c-276.194 0-500.093-223.899-500.093-500.093s223.899-500.093 500.093-500.093z" />
<glyph unicode="&#xe90b;" d="M679.897 318.558h21.439c26.019 0 47.409 21.401 47.409 47.799v248.169c0 26.295-21.226 47.799-47.409 47.799h-381.462c-26.019 0-47.409-21.401-47.409-47.799v-248.169c0-26.295 21.226-47.799 47.409-47.799h253.917l127.325-84.884-21.22 84.884z" />
<glyph unicode="&#xe90c;" d="M510.605-52.093c276.194 0 500.093 223.899 500.093 500.093s-223.899 500.093-500.093 500.093c-276.194 0-500.093-223.899-500.093-500.093s223.899-500.093 500.093-500.093z" />
<glyph unicode="&#xe90d;" d="M679.897 318.558h21.439c26.019 0 47.409 21.401 47.409 47.799v248.169c0 26.295-21.226 47.799-47.409 47.799h-381.462c-26.019 0-47.409-21.401-47.409-47.799v-248.169c0-26.295 21.226-47.799 47.409-47.799h253.917l127.325-84.884-21.22 84.884z" />
<glyph unicode="&#xe90e;" glyph-name="camera" d="M431.776 742.912h-352.185c-33.851 0-61.511-27.567-61.511-61.572v-519.004c0-33.98 27.539-61.572 61.511-61.572h872.306c33.851 0 61.511 27.567 61.511 61.572v519.004c0 33.98-27.539 61.572-61.511 61.572h-85.945l-44.615 44.615c-16.313 16.313-47.505 29.113-70.193 29.113h-204.56c-23.144 0-54.114-13.034-70.193-29.113l-44.615-44.615zM663.2 153.088c-152.696 0-276.48 123.784-276.48 276.48s123.784 276.48 276.48 276.48c152.696 0 276.48-123.784 276.48-276.48s-123.784-276.48-276.48-276.48zM220.832 558.592c-30.539 0-55.296 24.757-55.296 55.296s24.757 55.296 55.296 55.296c30.539 0 55.296-24.757 55.296-55.296s-24.757-55.296-55.296-55.296zM870.048 427.52c0 113.108-91.692 204.8-204.8 204.8s-204.8-91.692-204.8-204.8c0-113.108 91.692-204.8 204.8-204.8s204.8 91.692 204.8 204.8z" />
<glyph unicode="&#xe90f;" d="M224.222 846.222h455.111c94.257 0 170.667-76.41 170.667-170.667v-455.111c0-94.257-76.41-170.667-170.667-170.667h-455.111c-94.257 0-170.667 76.41-170.667 170.667v455.111c0 94.257 76.41 170.667 170.667 170.667z" />
<glyph unicode="&#xe910;" d="M408.1 104.053l563.171 563.171-160.906 160.906-402.265-403.377-201.133 202.244-160.906-160.906 362.039-362.039z" />
<glyph unicode="&#xe911;" d="M125 960h819.2c28.277 0 51.2-22.923 51.2-51.2v-921.6c0-28.277-22.923-51.2-51.2-51.2h-819.2c-28.277 0-51.2 22.923-51.2 51.2v921.6c0 28.277 22.923 51.2 51.2 51.2z" />
<glyph unicode="&#xe912;" d="M125 960h819.2c28.277 0 51.2-22.923 51.2-51.2v-51.2c0-28.277-22.923-51.2-51.2-51.2h-819.2c-28.277 0-51.2 22.923-51.2 51.2v51.2c0 28.277 22.923 51.2 51.2 51.2z" />
<glyph unicode="&#xe913;" d="M329.8 601.6c0-28.277-22.923-51.2-51.2-51.2s-51.2 22.923-51.2 51.2c0 28.277 22.923 51.2 51.2 51.2s51.2-22.923 51.2-51.2z" />
<glyph unicode="&#xe914;" d="M329.8 396.8c0-28.277-22.923-51.2-51.2-51.2s-51.2 22.923-51.2 51.2c0 28.277 22.923 51.2 51.2 51.2s51.2-22.923 51.2-51.2z" />
<glyph unicode="&#xe915;" d="M329.8 192c0-28.277-22.923-51.2-51.2-51.2s-51.2 22.923-51.2 51.2c0 28.277 22.923 51.2 51.2 51.2s51.2-22.923 51.2-51.2z" />
<glyph unicode="&#xe916;" glyph-name="close" d="M83.159 945.325l926.166-926.166c18.752-18.752 18.752-49.732 0-68.484s-49.732-18.752-68.484 0v0l-926.166 926.166c-18.752 18.752-18.752 49.732 0 68.484 18.752 19.567 48.917 19.567 68.484 0zM1009.325 945.325c18.752-18.752 18.752-49.732 0-68.484l-926.166-926.166c-18.752-18.752-49.732-18.752-68.484 0s-18.752 49.732 0 68.484v0l926.166 926.166c18.752 19.567 49.732 19.567 68.484 0z" />
<glyph unicode="&#xe917;" d="M38.56 550.4h972.8v-512h-972.8v512z" />
<glyph unicode="&#xe918;" d="M38.56 550.4l870.4-512h-870.4z" />
<glyph unicode="&#xe919;" d="M140.96 550.4l870.4-512h-870.4z" />
<glyph unicode="&#xe91a;" d="M524.96 857.6l450.634-260.962c19.753-11.439 35.766-39.263 35.766-46.238v0h-972.8c0 14.097 16.183 34.897 35.766 46.238l450.634 260.962z" />
<glyph unicode="&#xe91b;" glyph-name="heart-empty" horiz-adv-x="1196" d="M1111.654 877.261c-56.525 54.886-134.349 82.739-234.291 82.739-27.853 0-55.706-4.915-84.378-14.746s-55.706-22.118-80.282-38.502-45.875-31.13-63.898-45.875c-18.022-13.926-34.406-29.491-50.79-45.056-16.384 16.384-32.768 31.13-50.79 45.056s-39.322 29.491-63.898 45.875-51.61 29.491-80.282 38.502c-28.672 9.83-56.525 14.746-84.378 14.746-99.942 0-177.766-27.853-234.291-82.739s-84.378-131.891-84.378-229.376c0-29.491 4.915-60.621 15.565-91.75 10.65-31.949 22.118-58.163 36.045-81.101 13.107-22.118 28.672-44.237 45.056-64.717 17.203-21.299 29.491-36.045 36.864-43.418 8.192-8.192 13.926-13.926 18.022-17.203l416.154-401.408c8.192-8.192 18.022-12.288 29.491-12.288s21.299 4.096 29.491 12.288l416.154 400.589c101.581 101.581 153.19 202.342 153.19 300.646 0 95.846-27.853 172.032-84.378 227.738zM985.498 409.498l-387.482-372.736-387.482 373.555c-83.558 83.558-124.518 162.202-124.518 236.749 0 36.045 4.915 67.994 14.746 95.846s22.118 49.152 36.864 65.536 32.768 29.491 54.067 39.322 42.598 17.203 63.078 20.48 42.598 5.734 65.536 5.734 48.333-5.734 74.547-17.203c27.034-11.469 51.61-25.395 73.728-42.598s41.779-32.768 57.344-48.333c16.384-14.746 29.491-28.672 40.141-40.96 8.192-9.83 18.842-14.746 32.768-14.746s24.576 4.915 32.768 14.746c10.65 12.288 23.757 26.214 40.141 40.96s35.226 31.13 57.344 48.333c22.118 17.203 46.694 31.13 73.728 42.598s51.61 17.203 74.547 17.203 45.056-1.638 65.536-5.734 41.779-10.65 63.078-20.48c21.299-10.65 39.322-23.757 54.067-39.322 14.746-16.384 27.034-38.502 36.864-65.536 9.83-27.853 14.746-59.802 14.746-95.846-0.819-74.547-42.598-154.010-126.157-237.568z" />
<glyph unicode="&#xe91c;" glyph-name="heart-full" horiz-adv-x="1196" d="M1111.654 877.261c-56.525 54.886-134.349 82.739-234.291 82.739-27.853 0-55.706-4.915-84.378-14.746s-55.706-22.118-80.282-38.502-45.875-31.13-63.898-45.875c-18.022-13.926-34.406-29.491-50.79-45.056-16.384 16.384-32.768 31.13-50.79 45.056s-39.322 29.491-63.898 45.875-51.61 29.491-80.282 38.502c-28.672 9.83-56.525 14.746-84.378 14.746-99.942 0-177.766-27.853-234.291-82.739s-84.378-131.891-84.378-229.376c0-29.491 4.915-60.621 15.565-91.75 10.65-31.949 22.118-58.163 36.045-81.101 13.107-22.118 28.672-44.237 45.056-64.717 17.203-21.299 29.491-36.045 36.864-43.418 8.192-8.192 13.926-13.926 18.022-17.203l416.154-401.408c8.192-8.192 18.022-12.288 29.491-12.288s21.299 4.096 29.491 12.288l416.154 400.589c101.581 101.581 153.19 202.342 153.19 300.646 0 95.846-27.853 172.032-84.378 227.738z" />
<glyph unicode="&#xe91d;" glyph-name="hide" d="M538.588-33.882c-266.136 0-481.882 215.746-481.882 481.882s215.746 481.882 481.882 481.882c266.136 0 481.882-215.746 481.882-481.882s-215.746-481.882-481.882-481.882zM297.647 387.765h542.118v120.471h-602.353v-120.471h60.235z" />
<glyph unicode="&#xe91e;" glyph-name="instagram" d="M851.452 145.129v370.262h-77.138q11.428-35.998 11.428-74.852 0-71.995-36.569-132.849t-99.422-96.28-137.134-35.426q-112.564 0-192.559 77.424t-79.995 187.131q0 38.855 11.428 74.852h-80.566v-370.262q0-14.856 9.999-24.856t24.856-9.999h610.818q14.285 0 24.57 9.999t10.285 24.856zM689.177 449.681q0 70.853-51.711 120.849t-124.849 49.997q-72.567 0-124.278-49.997t-51.711-120.849 51.711-120.849 124.278-49.997q73.138 0 124.849 49.997t51.711 120.849zM851.452 655.383v94.28q0 15.999-11.428 27.713t-27.998 11.714h-99.422q-16.57 0-27.998-11.714t-11.428-27.713v-94.28q0-16.57 11.428-27.998t27.998-11.428h99.422q16.57 0 27.998 11.428t11.428 27.998zM950.874 774.232v-652.53q0-46.283-33.141-79.423t-79.423-33.141h-652.53q-46.283 0-79.423 33.141t-33.141 79.423v652.53q0 46.283 33.141 79.423t79.423 33.141h652.53q46.283 0 79.423-33.141t33.141-79.423z" />
<glyph unicode="&#xe91f;" glyph-name="lists" d="M202.4 120.32c0-45.243-36.677-81.92-81.92-81.92s-81.92 36.677-81.92 81.92c0 45.243 36.677 81.92 81.92 81.92s81.92-36.677 81.92-81.92zM333.346 79.36h688.254v81.92h-737.28v-81.92h49.026zM202.4 448c0-45.243-36.677-81.92-81.92-81.92s-81.92 36.677-81.92 81.92c0 45.243 36.677 81.92 81.92 81.92s81.92-36.677 81.92-81.92zM333.346 407.040h688.254v81.92h-737.28v-81.92h49.026zM202.4 775.68c0-45.243-36.677-81.92-81.92-81.92s-81.92 36.677-81.92 81.92c0 45.243 36.677 81.92 81.92 81.92s81.92-36.677 81.92-81.92zM333.346 734.72h688.254v81.92h-737.28v-81.92h49.026z" />
<glyph unicode="&#xe920;" glyph-name="logo-facebook" d="M967.488 960h-910.976c-31.232 0-56.512-25.28-56.512-56.512v-910.976c0-31.232 25.28-56.512 56.512-56.512h490.432v396.544h-133.504v154.496h133.504v114.112c0 132.224 80.768 204.16 198.784 204.16 56.512 0 105.088-4.096 119.232-6.016v-138.24h-81.92c-64 0-76.48-30.464-76.48-75.264v-98.56h152.96l-19.84-154.624h-133.12v-396.608h260.928c31.232 0 56.512 25.28 56.512 56.512v910.976c0 31.232-25.28 56.512-56.512 56.512z" />
<glyph unicode="&#xe921;" glyph-name="logo-googleplus" d="M325.76 494.528v-111.68h184.96c-7.424-48-55.872-140.608-184.768-140.608-111.168 0-201.92 92.16-201.92 205.76s90.56 205.76 201.728 205.76c63.36 0 105.728-27.008 129.92-50.304l88.448 85.12c-56.768 53.12-130.368 85.12-218.24 85.12-180.288 0.064-325.888-145.472-325.888-325.696s145.664-325.76 325.76-325.76c188.16 0 312.832 132.16 312.832 318.336 0 21.376-2.304 37.76-5.12 53.952h-307.712zM1024 494.528h-93.12v93.12h-93.12v-93.12h-93.056v-93.056h93.12v-93.12h93.12v93.12h93.056v93.056z" />
<glyph unicode="&#xe922;" d="M0 553.931h1006.345v-529.655h-1006.345v529.655z" />
<glyph unicode="&#xe923;" d="M0 553.931l900.414-529.655h-900.414z" />
<glyph unicode="&#xe924;" d="M105.931 553.931l900.414-529.655h-900.414z" />
<glyph unicode="&#xe925;" d="M503.172 871.724l503.172-291.388v-26.406h-1006.345v26.406z" />
<glyph unicode="&#xe926;" glyph-name="logo-twitter" d="M1003.102 759.087c-36.989-16.3-76.487-27.397-118.178-32.413 42.444 25.516 75.107 65.829 90.467 113.852-39.748-23.51-83.822-40.626-130.717-49.842-37.491 39.999-90.906 64.951-150.215 64.951-113.601 0-205.761-92.035-205.761-205.636 0-16.175 1.881-31.974 5.329-47.020-171.029 8.652-322.685 90.53-424.187 214.915-17.805-30.281-27.836-65.64-27.836-103.445 0-71.471 36.362-134.353 91.533-171.28-33.729 1.066-65.515 10.344-93.226 25.704v-2.508c0-99.683 70.844-182.941 165.073-201.874-17.304-4.639-35.485-7.147-54.23-7.147-13.166 0-26.081 1.254-38.682 3.636 26.206-81.753 102.191-141.249 192.282-142.942-70.468-55.171-159.242-88.022-255.603-88.022-16.614 0-32.977 0.94-49.089 2.821 91.094-58.305 199.241-92.411 315.476-92.411 378.546 0 585.561 313.469 585.561 585.435 0 8.965-0.251 17.805-0.627 26.645 40.124 29.027 75.107 65.202 102.693 106.58h-0.063z" />
<glyph unicode="&#xe927;" d="M1020.842 448c0-267.887-217.165-485.053-485.053-485.053s-485.053 217.165-485.053 485.053c0 267.887 217.165 485.053 485.053 485.053s485.053-217.165 485.053-485.053z" />
<glyph unicode="&#xe928;" d="M416.050 347.147h-122.787c5.806-65.299 26.996-114.825 63.571-148.581s87.373-52.847 152.395-57.274v-70.555h51.379v70.555c43.542 2.767 79.245 11.067 107.112 24.902s50.073 29.605 66.619 47.314c16.546 17.708 28.012 35.831 34.398 54.369s9.579 33.894 9.579 46.068c0 13.834-1.016 29.605-3.048 47.314s-8.563 35.416-19.594 53.124c-11.031 17.708-28.157 34.724-51.379 51.049s-56.313 30.021-99.275 41.088c-8.128 2.214-15.82 4.15-23.077 5.81s-14.369 3.32-21.335 4.98v146.921c19.739 0 36.575-7.747 50.508-23.242s21.19-34.309 21.771-56.444h123.658c-1.742 28.776-8.128 53.677-19.158 74.706s-25.254 38.598-42.671 52.709c-17.417 14.111-37.591 25.179-60.523 33.202s-47.46 13.419-73.585 16.186v63.915h-51.379v-63.915c-26.125-1.66-51.379-6.502-75.762-14.526s-45.864-19.368-64.441-34.033c-18.578-14.665-33.527-32.787-44.848-54.369s-16.981-46.483-16.981-74.706c0-27.669 4.935-50.772 14.804-69.31s23.077-34.032 39.623-46.483c16.546-12.451 35.269-22.412 56.169-29.882s42.090-13.973 63.571-19.506c5.806-1.107 11.176-2.352 16.11-3.735s8.853-2.629 11.756-3.735v-173.483c-26.706 4.98-49.057 16.601-67.054 34.863s-26.705 43.163-26.125 74.706v0zM560.608 237.579v159.372c34.253-8.854 58.491-18.676 72.714-29.467s21.335-26.977 21.335-48.559c0-13.281-2.903-24.763-8.708-34.448s-13.208-17.846-22.206-24.487c-8.999-6.641-19.158-11.759-30.479-15.356s-22.206-5.949-32.656-7.056v0zM509.229 664.231v-135.3c-27.867 6.087-47.896 14.111-60.087 24.072s-18.287 24.072-18.287 42.333c0 11.621 2.177 21.72 6.531 30.297s10.305 15.771 17.852 21.582c7.547 5.81 15.965 10.099 25.254 12.866s18.868 4.15 28.737 4.15v0z" />
<glyph unicode="&#xe929;" glyph-name="padlock-locked" d="M235.571 521.052c0 20.248 16.261 36.662 36.603 36.662h511.936c20.215 0 36.603-16.668 36.603-36.662v-328.74c0-40.568-32.714-73.455-72.926-73.455h-439.292c-40.276 0-72.926 32.986-72.926 73.455v328.74zM601.286 374.857c0 40.396-32.747 73.143-73.143 73.143s-73.143-32.747-73.143-73.143c0-27.073 14.709-50.711 36.571-63.358v-82.928h73.143v82.928c21.862 12.647 36.571 36.284 36.571 63.358zM747.571 228.571v475.477c0 121.298-98.242 219.38-219.429 219.38-120.94 0-219.429-98.22-219.429-219.38v-365.763h109.714v365.71c0 60.596 49.244 109.719 109.714 109.719 60.594 0 109.714-48.785 109.714-109.719v-475.424h109.714z" />
<glyph unicode="&#xe92a;" glyph-name="padlock-unlocked" d="M235.571 521.052c0 20.248 16.261 36.662 36.603 36.662h511.936c20.215 0 36.603-16.668 36.603-36.662v-328.74c0-40.568-32.714-73.455-72.926-73.455h-439.292c-40.276 0-72.926 32.986-72.926 73.455v328.74zM601.286 374.857c0 40.396-32.747 73.143-73.143 73.143s-73.143-32.747-73.143-73.143c0-27.073 14.709-50.711 36.571-63.358v-82.928h73.143v82.928c21.862 12.647 36.571 36.284 36.571 63.358zM747.571 228.571v475.477c0 121.298-98.242 219.38-219.429 219.38-120.94 0-219.429-98.22-219.429-219.38v-36.62h109.714v36.567c0 60.596 49.244 109.719 109.714 109.719 60.594 0 109.714-48.785 109.714-109.719v-475.424h109.714z" />
<glyph unicode="&#xe92b;" glyph-name="pen" d="M245.76 22.835h-72.090v86.835h-86.835v72.090l61.44 61.44 158.925-158.925-61.44-61.44zM598.835 649.523c0-4.096-1.638-8.192-4.915-11.469l-366.182-366.182c-3.277-3.277-7.373-4.915-11.469-4.915-8.192 0-14.746 5.734-14.746 13.107 0 0.819 0 0.819 0 1.638 0 4.096 1.638 8.192 4.915 11.469l366.182 366.182c3.277 3.277 7.373 4.915 11.469 4.915 8.192 0 14.746-5.734 14.746-13.107 0 0 0-0.819 0-1.638v0zM562.79 779.776l-562.79-561.971v-281.805h280.986l561.971 561.971-280.166 281.805zM1024 715.059c0 22.938-9.011 45.056-25.395 61.44l-158.925 158.106c-16.384 16.384-38.502 25.395-61.44 25.395s-45.056-9.011-60.621-25.395l-112.23-111.411 280.986-280.986 112.23 112.23c16.384 15.565 25.395 37.683 25.395 60.621z" />
<glyph unicode="&#xe92c;" glyph-name="report" d="M124.25 899.765v-963.765h128v1024h-128v-60.235zM316.25 900.645c128 57.806 256 57.806 384 0v-404.645c-128 57.806-256 57.806-384 0v404.645zM572.25 491.355c128-57.806 256-57.806 384 0v404.645c-128-57.806-256-57.806-384 0v-404.645z" />
<glyph unicode="&#xe92d;" d="M627.407 830.484c-142.222 142.222-372.81 142.222-515.032 0s-142.222-372.81 0-515.032c124.584-124.584 316.975-140.035 458.378-46.352l288.268-288.268c28.553-28.553 74.713-28.595 103.157-0.151 28.643 28.643 28.377 74.63-0.151 103.157l-288.268 288.268c93.683 141.403 78.232 333.794-46.352 458.378z" />
<glyph unicode="&#xe92e;" d="M369.891 318.040v0c140.793 0 254.928 114.135 254.928 254.928s-114.135 254.928-254.928 254.928c-140.793 0-254.928-114.135-254.928-254.928s114.135-254.928 254.928-254.928v0z" />
<glyph unicode="&#xe92f;" glyph-name="shape" d="M408.1 75.609l563.171 563.171-160.906 160.906-402.265-403.377-201.133 202.244-160.906-160.906 362.039-362.039z" />
</font>
</defs>
</svg>
